<svg width="15" height="18" viewBox="0 0 15 18" fill="none" xmlns="http://www.w3.org/2000/svg">
<path d="M12.9377 4.68567C11.5689 1.52011 7.88996 0.0656698 4.73663 1.43456C1.5833 2.80345 0.116629 6.48234 1.48552 9.63567C2.41441 11.7746 4.39441 13.1068 6.56996 13.339L7.60885 15.7468C8.12219 16.9201 9.47885 17.4579 10.6522 16.9568L11.9966 16.3823C13.17 15.869 13.7077 14.5123 13.2066 13.339L12.1677 10.9312C13.4877 9.19567 13.8789 6.83678 12.95 4.69789L12.9377 4.68567Z" fill="#F2DD22" stroke="black" stroke-width="1.5" stroke-linecap="round" stroke-linejoin="round"/>
<path d="M7.16895 14.7567L12.7667 12.3367" stroke="black" stroke-width="1.5" stroke-linecap="round" stroke-linejoin="round"/>
<path d="M5.81226 3.94007C7.5967 3.17007 9.67448 3.98896 10.4445 5.7734" stroke="black" stroke-width="1.5" stroke-linecap="round" stroke-linejoin="round"/>
</svg>
