<svg width="20" height="20" viewBox="0 0 20 20" fill="none" xmlns="http://www.w3.org/2000/svg">
<path d="M16.6666 7.20817V5.83317C16.6666 4.9165 15.9166 4.1665 14.9999 4.1665H4.99992C4.08325 4.1665 3.33325 4.9165 3.33325 5.83317V7.20817H16.6666Z" fill="#999999"/>
<path d="M3.33325 8.4585V14.1668C3.33325 15.0835 4.08325 15.8335 4.99992 15.8335H14.9999C15.9166 15.8335 16.6666 15.0835 16.6666 14.1668V8.4585H3.33325ZM6.25825 13.6668H5.42492C5.08325 13.6668 4.79992 13.3835 4.79992 13.0418C4.79992 12.7002 5.08325 12.4168 5.42492 12.4168H6.25825C6.59992 12.4168 6.88325 12.7002 6.88325 13.0418C6.88325 13.3835 6.59992 13.6668 6.25825 13.6668ZM6.25825 11.4002H5.42492C5.08325 11.4002 4.79992 11.1168 4.79992 10.7752C4.79992 10.4335 5.08325 10.1502 5.42492 10.1502H6.25825C6.59992 10.1502 6.88325 10.4335 6.88325 10.7752C6.88325 11.1168 6.59992 11.4002 6.25825 11.4002ZM9.03325 13.6668H8.19992C7.85825 13.6668 7.57492 13.3835 7.57492 13.0418C7.57492 12.7002 7.85825 12.4168 8.19992 12.4168H9.03325C9.37492 12.4168 9.65825 12.7002 9.65825 13.0418C9.65825 13.3835 9.37492 13.6668 9.03325 13.6668ZM9.03325 11.4002H8.19992C7.85825 11.4002 7.57492 11.1168 7.57492 10.7752C7.57492 10.4335 7.85825 10.1502 8.19992 10.1502H9.03325C9.37492 10.1502 9.65825 10.4335 9.65825 10.7752C9.65825 11.1168 9.37492 11.4002 9.03325 11.4002ZM11.8083 13.6668H10.9749C10.6333 13.6668 10.3499 13.3835 10.3499 13.0418C10.3499 12.7002 10.6333 12.4168 10.9749 12.4168H11.8083C12.1499 12.4168 12.4333 12.7002 12.4333 13.0418C12.4333 13.3835 12.1499 13.6668 11.8083 13.6668ZM11.8083 11.4002H10.9749C10.6333 11.4002 10.3499 11.1168 10.3499 10.7752C10.3499 10.4335 10.6333 10.1502 10.9749 10.1502H11.8083C12.1499 10.1502 12.4333 10.4335 12.4333 10.7752C12.4333 11.1168 12.1499 11.4002 11.8083 11.4002ZM14.5833 13.6668H13.7499C13.4083 13.6668 13.1249 13.3835 13.1249 13.0418C13.1249 12.7002 13.4083 12.4168 13.7499 12.4168H14.5833C14.9249 12.4168 15.2083 12.7002 15.2083 13.0418C15.2083 13.3835 14.9249 13.6668 14.5833 13.6668ZM14.5833 11.4002H13.7499C13.4083 11.4002 13.1249 11.1168 13.1249 10.7752C13.1249 10.4335 13.4083 10.1502 13.7499 10.1502H14.5833C14.9249 10.1502 15.2083 10.4335 15.2083 10.7752C15.2083 11.1168 14.9249 11.4002 14.5833 11.4002Z" fill="#999999"/>
</svg>
