<svg width="40" height="40" viewBox="0 0 40 40" fill="none" xmlns="http://www.w3.org/2000/svg">
<path d="M25.62 10.49L25.38 9.52C25.16 8.63 24.36 8.01 23.44 8.01H16.56C15.64 8.01 14.84 8.63 14.62 9.52L14.38 10.49C14.16 11.38 13.36 12 12.44 12H7C5.9 12 5 12.9 5 14V30C5 31.1 5.9 32 7 32H33C34.1 32 35 31.1 35 30V14C35 12.9 34.1 12 33 12H27.56C26.64 12 25.84 11.38 25.62 10.49V10.49Z" stroke="#999999" stroke-width="2" stroke-miterlimit="10"/>
<path d="M20 27.15C23.3137 27.15 26 24.4637 26 21.15C26 17.8363 23.3137 15.15 20 15.15C16.6863 15.15 14 17.8363 14 21.15C14 24.4637 16.6863 27.15 20 27.15Z" stroke="#999999" stroke-width="2" stroke-miterlimit="10"/>
</svg>
