<svg width="14" height="14" viewBox="0 0 14 14" fill="none" xmlns="http://www.w3.org/2000/svg">
<circle cx="7" cy="7" r="7" fill="url(#paint0_linear_2719_3450)"/>
<path d="M8.69922 5.86792C8.66016 5.46167 8.50781 5.1394 8.24219 4.90112C7.98047 4.66284 7.62891 4.5437 7.1875 4.5437C6.60156 4.5437 6.14844 4.75659 5.82812 5.18237C5.50781 5.60425 5.34766 6.19604 5.34766 6.95776C5.34766 7.74292 5.50586 8.34058 5.82227 8.75073C6.14258 9.16089 6.59375 9.36792 7.17578 9.37183C7.60156 9.36792 7.94531 9.2605 8.20703 9.04956C8.47266 8.83472 8.63672 8.53589 8.69922 8.15308L10.9609 8.17651C10.918 8.68823 10.7422 9.18628 10.4336 9.67065C10.1289 10.1511 9.69336 10.5457 9.12695 10.8542C8.56445 11.1628 7.89844 11.3171 7.12891 11.3171C6.34375 11.3171 5.64258 11.1472 5.02539 10.8074C4.41211 10.4675 3.92969 9.96948 3.57812 9.31323C3.22656 8.65698 3.05078 7.87183 3.05078 6.95776C3.05078 6.0437 3.22852 5.25854 3.58398 4.60229C3.94336 3.94604 4.43164 3.448 5.04883 3.10815C5.66602 2.76831 6.35938 2.59839 7.12891 2.59839C7.83594 2.59839 8.4668 2.72729 9.02148 2.98511C9.57617 3.23901 10.0215 3.61206 10.3574 4.10425C10.6973 4.59644 10.8984 5.18433 10.9609 5.86792H8.69922Z" fill="white"/>
<defs>
<linearGradient id="paint0_linear_2719_3450" x1="0" y1="0" x2="14" y2="14" gradientUnits="userSpaceOnUse">
<stop stop-color="#5712EB"/>
<stop offset="0.895833" stop-color="#00FF84"/>
</linearGradient>
</defs>
</svg>
