<svg width="42" height="42" viewBox="0 0 42 42" fill="none" xmlns="http://www.w3.org/2000/svg">
<path d="M8.23975 8.76172H22.0997" stroke="black" stroke-width="3" stroke-linecap="round" stroke-linejoin="round"/>
<path d="M8.23975 22.1602H21.2497" stroke="black" stroke-width="3" stroke-linecap="round" stroke-linejoin="round"/>
<path d="M12.1 35.4909H2.45996V2.13086H27.88V16.3209" stroke="black" stroke-width="3" stroke-linecap="round" stroke-linejoin="round"/>
<path d="M8.23975 28.8711H14.2497" stroke="black" stroke-width="3" stroke-linecap="round" stroke-linejoin="round"/>
<path d="M8.23975 15.4609H18.2097" stroke="black" stroke-width="3" stroke-linecap="round" stroke-linejoin="round"/>
<path d="M37.1799 23.23L39.4999 20.91C40.2299 20.18 40.2299 18.99 39.4999 18.25L38.1099 16.86C37.3799 16.13 36.1899 16.13 35.4499 16.86L33.1299 19.18" stroke="black" stroke-width="3" stroke-linecap="round" stroke-linejoin="round"/>
<path d="M33.1398 19.1895L19.0198 33.3095C18.8498 33.4795 18.7098 33.6895 18.6198 33.9095L16.7298 38.4095C16.3998 39.1895 17.1898 39.9795 17.9698 39.6495L22.4698 37.7595C22.6898 37.6695 22.8998 37.5295 23.0698 37.3595L37.1898 23.2395L33.1398 19.1895Z" stroke="black" stroke-width="3" stroke-linecap="round" stroke-linejoin="round"/>
</svg>
