<svg width="46" height="43" viewBox="0 0 46 43" fill="none" xmlns="http://www.w3.org/2000/svg">
<path d="M40.2899 32.7898C42.6799 29.5898 44.0999 25.6998 44.0999 21.4998C44.0999 10.5998 34.6499 1.75977 22.9999 1.75977C11.3499 1.75977 1.8999 10.5898 1.8999 21.4898C1.8999 32.3898 11.3499 41.2298 22.9999 41.2298C27.6799 41.2298 31.9899 39.7898 35.4899 37.3798L41.9899 39.1198L40.2899 32.7798V32.7898Z" stroke="black" stroke-width="3" stroke-linecap="round" stroke-linejoin="round"/>
<path d="M14.0401 24.4103C15.6528 24.4103 16.9601 23.103 16.9601 21.4903C16.9601 19.8776 15.6528 18.5703 14.0401 18.5703C12.4274 18.5703 11.1201 19.8776 11.1201 21.4903C11.1201 23.103 12.4274 24.4103 14.0401 24.4103Z" fill="black"/>
<path d="M23.0001 24.4103C24.6127 24.4103 25.9201 23.103 25.9201 21.4903C25.9201 19.8776 24.6127 18.5703 23.0001 18.5703C21.3874 18.5703 20.0801 19.8776 20.0801 21.4903C20.0801 23.103 21.3874 24.4103 23.0001 24.4103Z" fill="black"/>
<path d="M31.96 24.4103C33.5727 24.4103 34.88 23.103 34.88 21.4903C34.88 19.8776 33.5727 18.5703 31.96 18.5703C30.3474 18.5703 29.04 19.8776 29.04 21.4903C29.04 23.103 30.3474 24.4103 31.96 24.4103Z" fill="black"/>
</svg>
