<svg width="52" height="38" viewBox="0 0 52 38" fill="none" xmlns="http://www.w3.org/2000/svg">
<path d="M49.8799 33.3391C36.4799 29.1191 23.0699 36.4091 9.66992 35.8291V13.6491C23.0699 14.2291 36.4799 6.93911 49.8799 11.1591V33.3391Z" stroke="black" stroke-width="3" stroke-linecap="round" stroke-linejoin="round"/>
<path d="M39.1202 17.72C38.5302 17.74 37.9502 17.78 37.3602 17.83C37.6102 16.97 37.8502 16.11 38.1002 15.25C36.9802 15.32 35.8502 15.44 34.7302 15.58C34.5402 16.44 34.3502 17.31 34.1602 18.18C33.3602 18.29 32.5602 18.41 31.7602 18.54C31.5402 17.74 31.3202 16.93 31.1002 16.13C30.2102 16.28 29.3202 16.45 28.4302 16.62C28.2102 17.5 27.9902 18.39 27.7702 19.27C26.9802 19.42 26.1802 19.58 25.3902 19.73C25.2002 18.93 25.0102 18.12 24.8202 17.32C23.7002 17.54 22.5702 17.75 21.4502 17.95C21.7002 18.75 21.9402 19.54 22.1902 20.34C21.6002 20.45 21.0202 20.55 20.4302 20.65C20.4302 21.64 20.4302 22.62 20.4302 23.61C21.3102 23.46 22.1802 23.31 23.0602 23.14C23.6502 25.04 24.2402 26.94 24.8402 28.84C25.8102 28.65 26.7702 28.46 27.7402 28.28C28.3502 26.15 28.9602 24.02 29.5602 21.9C29.7002 21.87 29.8502 21.85 29.9902 21.82C30.6002 23.72 31.2102 25.63 31.8102 27.54C32.7802 27.38 33.7502 27.23 34.7202 27.11C35.3102 25.02 35.9002 22.94 36.5002 20.87C37.3802 20.79 38.2502 20.72 39.1302 20.69C39.1302 19.7 39.1302 18.72 39.1302 17.73L39.1202 17.72ZM26.5302 24.19C26.5302 24.19 26.4702 24.2 26.4302 24.21C26.3002 23.66 26.1702 23.11 26.0402 22.56C26.3502 22.5 26.6702 22.44 26.9802 22.38C26.8302 22.98 26.6802 23.59 26.5302 24.19ZM33.1002 23.05C33.1002 23.05 33.0402 23.05 33.0002 23.06C32.8502 22.5 32.6902 21.94 32.5402 21.37C32.8602 21.32 33.1802 21.27 33.4902 21.23C33.3602 21.84 33.2302 22.44 33.1002 23.05Z" fill="black"/>
<path d="M42.3301 4.41982V2.16982C28.9301 1.58982 15.5201 8.87982 2.12012 4.65982C2.12012 12.0498 2.12012 19.4498 2.12012 26.8398C2.85012 27.0698 3.58012 27.2698 4.31012 27.4298" stroke="black" stroke-width="3" stroke-linecap="round" stroke-linejoin="round"/>
</svg>
