<svg width="74" height="74" viewBox="0 0 74 74" fill="none" xmlns="http://www.w3.org/2000/svg">
<g clip-path="url(#clip0_3712_235200)">
<path d="M37 74C57.4345 74 74 57.4345 74 37C74 16.5655 57.4345 0 37 0C16.5655 0 0 16.5655 0 37C0 57.4345 16.5655 74 37 74Z" fill="black"/>
<path d="M16.0498 22.6099V49.5199H51.3898V55.8199L57.9398 49.5199V22.6099H16.0498Z" stroke="white" stroke-width="3" stroke-linecap="round" stroke-linejoin="round"/>
<path d="M21.5298 29.6504H29.9498V32.2204H24.6998V34.4004H29.4198V36.9704H24.6998V41.7204H21.5298V29.6504Z" fill="white"/>
<path d="M29.26 41.7204L33.28 29.6504H37.6L41.6 41.7204H38.18L37.45 39.3504H33.41L32.69 41.7204H29.25H29.26ZM36.72 36.9504L35.48 32.9004H35.38L34.15 36.9504H36.73H36.72Z" fill="white"/>
<path d="M42.9199 32.3302C43.4299 31.4002 44.1299 30.6902 45.0099 30.2002C45.8899 29.7102 46.8899 29.4702 47.9999 29.4702C49.1099 29.4702 50.0899 29.7102 50.9799 30.2002C51.8599 30.6802 52.5599 31.3902 53.0699 32.3302C53.5799 33.2702 53.8399 34.3802 53.8399 35.6802C53.8399 36.7002 53.6799 37.6102 53.3599 38.4102C53.0399 39.2102 52.5899 39.8802 52.0099 40.4202L53.8399 42.6402H50.9999L50.0799 41.5602C49.4299 41.7802 48.7399 41.8902 47.9999 41.8902C46.8899 41.8902 45.8899 41.6502 45.0099 41.1602C44.1299 40.6702 43.4299 39.9602 42.9199 39.0302C42.4099 38.1002 42.1499 36.9802 42.1499 35.6902C42.1499 34.4002 42.4099 33.2702 42.9199 32.3402V32.3302ZM49.3699 37.2802L50.0099 38.0802C50.3799 37.4902 50.5699 36.6702 50.5699 35.6502C50.5699 34.5502 50.3499 33.7102 49.8999 33.1302C49.4599 32.5402 48.8199 32.2502 47.9999 32.2502C47.1799 32.2502 46.5299 32.5402 46.0799 33.1302C45.6399 33.7202 45.4099 34.5702 45.4099 35.6802C45.4099 36.7902 45.6299 37.6302 46.0799 38.2202C46.5199 38.8102 47.1599 39.1102 47.9999 39.1102H48.2599L46.8799 37.2802H49.3699Z" fill="white"/>
</g>
<defs>
<clipPath id="clip0_3712_235200">
<rect width="74" height="74" fill="white"/>
</clipPath>
</defs>
</svg>
