<svg width="74" height="74" viewBox="0 0 74 74" fill="none" xmlns="http://www.w3.org/2000/svg">
<g clip-path="url(#clip0_3712_235130)">
<path d="M37 74C57.4345 74 74 57.4345 74 37C74 16.5655 57.4345 0 37 0C16.5655 0 0 16.5655 0 37C0 57.4345 16.5655 74 37 74Z" fill="black"/>
<path d="M35.733 32.8672C35.2801 32.6084 34.9288 32.2572 34.67 31.8135C34.4112 31.3698 34.2911 30.88 34.3003 30.3531C34.2911 29.8355 34.4112 29.3549 34.67 28.9112C34.9288 28.4675 35.2893 28.1163 35.733 27.8668C36.1859 27.6172 36.6757 27.4878 37.2026 27.4878C37.7294 27.4878 38.1823 27.6172 38.626 27.8668C39.0604 28.1163 39.4117 28.4675 39.6797 28.9112C39.9478 29.3549 40.0772 29.8355 40.0772 30.3531C40.0772 30.8707 39.9478 31.3698 39.6797 31.8135C39.4117 32.2572 39.0604 32.6084 38.626 32.8672C38.1916 33.126 37.711 33.2554 37.2026 33.2554C36.6942 33.2554 36.1859 33.126 35.733 32.8672ZM35.733 46.0569C35.2801 45.7981 34.9288 45.4469 34.67 45.0032C34.4112 44.5596 34.2911 44.0697 34.3003 43.5428C34.2911 43.0252 34.4112 42.5446 34.67 42.1009C34.9288 41.6573 35.2893 41.306 35.733 41.0565C36.1859 40.8069 36.6757 40.6775 37.2026 40.6775C37.7294 40.6775 38.1823 40.8069 38.626 41.0565C39.0604 41.306 39.4117 41.6573 39.6797 42.1009C39.9478 42.5446 40.0772 43.0252 40.0772 43.5428C40.0772 44.0604 39.9478 44.5596 39.6797 45.0032C39.4117 45.4469 39.0604 45.7981 38.626 46.0569C38.1916 46.3157 37.711 46.4451 37.2026 46.4451C36.6942 46.4451 36.1859 46.3157 35.733 46.0569Z" fill="white"/>
<path d="M49.0826 23.9663L43.8418 27.303V31.9153L48.6389 28.9113H48.7775V49.0332H53.9998V23.9663H49.0826Z" fill="white"/>
<path d="M23.1099 23.9663L17.8599 27.303V31.9153L22.657 28.9113H22.7956V49.0332H28.0271V23.9663H23.1099Z" fill="white"/>
</g>
<defs>
<clipPath id="clip0_3712_235130">
<rect width="74" height="74" fill="white"/>
</clipPath>
</defs>
</svg>
