<svg width="74" height="74" viewBox="0 0 74 74" fill="none" xmlns="http://www.w3.org/2000/svg">
<g clip-path="url(#clip0_3712_235055)">
<path d="M37 74C57.4345 74 74 57.4345 74 37C74 16.5655 57.4345 0 37 0C16.5655 0 0 16.5655 0 37C0 57.4345 16.5655 74 37 74Z" fill="black"/>
<path d="M26.1199 31.5302C25.3399 33.2002 23.9499 34.5202 22.2399 35.2102L18.9699 36.5402L17.6999 37.0602C15.8199 37.8202 14.9199 39.9602 15.6799 41.8402L18.1799 48.0102C18.9399 49.8902 21.0799 50.7902 22.9599 50.0302L24.2299 49.5102L27.4999 48.1802C29.2099 47.4902 31.1199 47.4602 32.8499 48.1202L46.6499 53.3402L32.3899 18.1802L26.1199 31.5402V31.5302Z" stroke="white" stroke-width="3" stroke-linecap="round" stroke-linejoin="round"/>
<path d="M43.7197 28.0302C46.5697 26.8702 49.8197 28.2502 50.9797 31.1002C52.1397 33.9502 50.7597 37.2002 47.9097 38.3602" stroke="white" stroke-width="3" stroke-linecap="round" stroke-linejoin="round"/>
<path d="M41.27 21.9804C47.46 19.4704 54.51 22.4504 57.02 28.6404C59.53 34.8304 56.55 41.8804 50.36 44.3904" stroke="white" stroke-width="3" stroke-linecap="round" stroke-linejoin="round"/>
</g>
<defs>
<clipPath id="clip0_3712_235055">
<rect width="74" height="74" fill="white"/>
</clipPath>
</defs>
</svg>
