<svg width="24" height="27" viewBox="0 0 24 27" fill="none" xmlns="http://www.w3.org/2000/svg">
<path d="M22.84 15.43C21.99 11.54 19.57 9.15001 19.57 9.15001C19.5 10.85 18.65 11.5 18.65 11.5C17.2 6.83001 15.02 7.91001 13.11 5.38001C11.85 3.71001 12.69 0.570007 12.69 0.570007C6.02 2.89001 5.25 11.64 5.25 11.64C3.73 10.55 4.35 8.77001 4.35 8.77001C4.35 8.77001 1.09 12.63 0.879996 18.77C0.799996 21.07 1.76 22.91 2.99 24.32C3 24.33 3.01 24.34 3.02 24.36C4.21 25.71 5.85 26.55 7.6 26.84C8.27 26.89 9.05 26.94 9.94 26.97C9.54 26.82 9.18 26.58 8.89 26.25C8.89 26.25 8.89 26.25 8.88 26.24C8.45 25.75 8.12 25.11 8.15 24.31C8.23 22.18 9.36 20.84 9.36 20.84C9.36 20.84 9.36 22.14 9.89 22.52C9.89 22.52 9.92 18.38 12.23 17.58C12.23 17.58 11.83 18.53 12.23 19.14C12.63 19.75 14.24 20.95 14.09 22.51C14.09 22.51 14.76 21.96 14.64 20.98C14.64 20.98 17.84 25.5 13.92 26.98C14.6 26.96 15.22 26.93 15.78 26.89C16.31 26.82 16.83 26.7 17.34 26.52C23.04 24.46 23.68 19.22 22.85 15.45L22.84 15.43Z" fill="#DF2E47"/>
<path d="M6.61998 25.4C7.33998 26.16 8.80998 26.96 10.16 26.97C10.19 26.97 10.21 26.97 10.24 26.97H13.57C14.12 26.97 14.67 26.88 15.18 26.69C22.11 24.19 16.52 16.3 16.52 16.3C16.72 17.99 15.57 18.94 15.57 18.94C15.83 16.25 13.06 14.17 12.36 13.13C11.67 12.09 11.62 10.15 11.62 10.15C8.12998 14.22 8.32998 18.96 8.32998 18.96C7.41998 18.31 7.03998 16.59 7.03998 16.59C7.03998 16.59 5.18998 18.94 5.33998 22.05C5.42998 23.92 5.85998 24.53 6.59998 25.37C6.59998 25.37 5.89998 24.63 6.61998 25.39V25.4Z" fill="#F2DD22"/>
<path d="M8.87999 26.24C9.16999 26.57 9.53999 26.81 9.94999 26.96C10.59 26.98 11.26 27 12 27C12.68 27 13.31 26.99 13.91 26.97C17.83 25.49 14.63 20.97 14.63 20.97C14.74 21.95 14.08 22.5 14.08 22.5C14.23 20.94 12.62 19.73 12.22 19.13C11.82 18.52 12.22 17.57 12.22 17.57C9.90999 18.37 9.87999 22.51 9.87999 22.51C9.34999 22.13 9.34999 20.83 9.34999 20.83C9.34999 20.83 8.21999 22.17 8.13999 24.3C8.10999 25.1 8.43999 25.74 8.86999 26.23C8.86999 26.23 8.86999 26.23 8.87999 26.24Z" fill="white"/>
</svg>
