<svg width="16" height="16" viewBox="0 0 16 16" fill="none" xmlns="http://www.w3.org/2000/svg">
<path d="M8 16C12.4183 16 16 12.4183 16 8C16 3.58172 12.4183 0 8 0C3.58172 0 0 3.58172 0 8C0 12.4183 3.58172 16 8 16Z" fill="#0AA7FF"/>
<path d="M8.00047 14.02C11.3252 14.02 14.0205 11.3247 14.0205 7.99998C14.0205 4.67523 11.3252 1.97998 8.00047 1.97998C4.67571 1.97998 1.98047 4.67523 1.98047 7.99998C1.98047 11.3247 4.67571 14.02 8.00047 14.02Z" fill="white"/>
<path d="M8.00001 4.28998L9.22001 6.32998L11.55 6.85998L9.98001 8.65998L10.19 11.03L8.00001 10.1L5.81001 11.03L6.02001 8.65998L4.45001 6.85998L6.78001 6.32998L8.00001 4.28998Z" fill="#0A7AFF" stroke="#0A7AFF" stroke-linecap="round" stroke-linejoin="round"/>
</svg>
