<svg width="20" height="20" viewBox="0 0 20 20" fill="none" xmlns="http://www.w3.org/2000/svg">
<path d="M10 20C15.5228 20 20 15.5228 20 10C20 4.47715 15.5228 0 10 0C4.47715 0 0 4.47715 0 10C0 15.5228 4.47715 20 10 20Z" fill="#DB7435"/>
<path d="M9.99961 17.5251C14.1556 17.5251 17.5246 14.156 17.5246 10.0001C17.5246 5.84415 14.1556 2.4751 9.99961 2.4751C5.84367 2.4751 2.47461 5.84415 2.47461 10.0001C2.47461 14.156 5.84367 17.5251 9.99961 17.5251Z" fill="#F3AD77"/>
<path d="M13.3248 9.9999H10.7373L11.9373 5.2749L6.6748 9.9999H9.2623L8.0623 14.7249L13.3248 9.9999Z" fill="#D2632A" stroke="#D2632A" stroke-linecap="round" stroke-linejoin="round"/>
</svg>
