<svg width="16" height="16" viewBox="0 0 16 16" fill="none" xmlns="http://www.w3.org/2000/svg">
<path d="M8 16C12.4183 16 16 12.4183 16 8C16 3.58172 12.4183 0 8 0C3.58172 0 0 3.58172 0 8C0 12.4183 3.58172 16 8 16Z" fill="#999999"/>
<path d="M8.00047 14.02C11.3252 14.02 14.0205 11.3247 14.0205 7.99998C14.0205 4.67523 11.3252 1.97998 8.00047 1.97998C4.67571 1.97998 1.98047 4.67523 1.98047 7.99998C1.98047 11.3247 4.67571 14.02 8.00047 14.02Z" fill="white"/>
<path d="M8 11.8201L5.12 8.00005L8 4.18005L10.88 8.00005L8 11.8201Z" fill="#999999" stroke="#999999" stroke-linecap="round" stroke-linejoin="round"/>
</svg>
