<svg width="16" height="16" viewBox="0 0 16 16" fill="none" xmlns="http://www.w3.org/2000/svg">
<path d="M8 16C12.4183 16 16 12.4183 16 8C16 3.58172 12.4183 0 8 0C3.58172 0 0 3.58172 0 8C0 12.4183 3.58172 16 8 16Z" fill="#F5BC00"/>
<path d="M8.00047 14.02C11.3252 14.02 14.0205 11.3247 14.0205 7.99998C14.0205 4.67523 11.3252 1.97998 8.00047 1.97998C4.67571 1.97998 1.98047 4.67523 1.98047 7.99998C1.98047 11.3247 4.67571 14.02 8.00047 14.02Z" fill="white"/>
<path d="M10.68 11.0801H5.31996L4.70996 7.5001L6.59996 8.5501L7.99996 6.1001L9.39996 8.5501L11.29 7.5001L10.68 11.0801Z" fill="#FFBC27" stroke="#FFBC27" stroke-linecap="round" stroke-linejoin="round"/>
<path d="M7.99966 5.14007C8.36417 5.14007 8.65966 4.84458 8.65966 4.48007C8.65966 4.11556 8.36417 3.82007 7.99966 3.82007C7.63515 3.82007 7.33966 4.11556 7.33966 4.48007C7.33966 4.84458 7.63515 5.14007 7.99966 5.14007Z" fill="#FFBC27"/>
<path d="M11.91 6.74017C12.2745 6.74017 12.57 6.44467 12.57 6.08017C12.57 5.71566 12.2745 5.42017 11.91 5.42017C11.5455 5.42017 11.25 5.71566 11.25 6.08017C11.25 6.44467 11.5455 6.74017 11.91 6.74017Z" fill="#FFBC27"/>
<path d="M4.08969 6.74004C4.4542 6.74004 4.74969 6.44455 4.74969 6.08004C4.74969 5.71554 4.4542 5.42004 4.08969 5.42004C3.72518 5.42004 3.42969 5.71554 3.42969 6.08004C3.42969 6.44455 3.72518 6.74004 4.08969 6.74004Z" fill="#FFBC27"/>
</svg>
