<svg width="16" height="16" viewBox="0 0 16 16" fill="none" xmlns="http://www.w3.org/2000/svg">
<path d="M8 16C12.4183 16 16 12.4183 16 8C16 3.58172 12.4183 0 8 0C3.58172 0 0 3.58172 0 8C0 12.4183 3.58172 16 8 16Z" fill="url(#paint0_linear_2727_63785)"/>
<path d="M8.00047 14.02C11.3252 14.02 14.0205 11.3247 14.0205 7.99998C14.0205 4.67523 11.3252 1.97998 8.00047 1.97998C4.67571 1.97998 1.98047 4.67523 1.98047 7.99998C1.98047 11.3247 4.67571 14.02 8.00047 14.02Z" fill="white"/>
<path d="M7.99969 11.8799L12.3197 7.11992L10.6697 4.91992H5.32969L3.67969 7.11992L7.99969 11.8799Z" fill="url(#paint1_linear_2727_63785)" stroke="url(#paint2_linear_2727_63785)" stroke-linecap="round" stroke-linejoin="round"/>
<path d="M7.11999 5.91998H6.73999" stroke="white" stroke-linecap="round" stroke-linejoin="round"/>
<path d="M11.0304 7.14992L10.1004 5.91992H8.69043" stroke="white" stroke-linecap="round" stroke-linejoin="round"/>
<defs>
<linearGradient id="paint0_linear_2727_63785" x1="0" y1="0" x2="16" y2="16" gradientUnits="userSpaceOnUse">
<stop stop-color="#5712EB"/>
<stop offset="0.895833" stop-color="#00FF84"/>
</linearGradient>
<linearGradient id="paint1_linear_2727_63785" x1="3.67969" y1="4.91992" x2="10.4801" y2="13.3618" gradientUnits="userSpaceOnUse">
<stop stop-color="#00FF85"/>
<stop offset="1" stop-color="#0A7AFF"/>
</linearGradient>
<linearGradient id="paint2_linear_2727_63785" x1="3.67969" y1="4.91992" x2="10.4801" y2="13.3618" gradientUnits="userSpaceOnUse">
<stop stop-color="#00FF85"/>
<stop offset="1" stop-color="#0A7AFF"/>
</linearGradient>
</defs>
</svg>
