<svg width="20" height="20" viewBox="0 0 20 20" fill="none" xmlns="http://www.w3.org/2000/svg">
<path d="M10 20C15.5228 20 20 15.5228 20 10C20 4.47715 15.5228 0 10 0C4.47715 0 0 4.47715 0 10C0 15.5228 4.47715 20 10 20Z" fill="#F5BC3E"/>
<path d="M10.0006 17.5251C14.1565 17.5251 17.5256 14.156 17.5256 10.0001C17.5256 5.84415 14.1565 2.4751 10.0006 2.4751C5.84464 2.4751 2.47559 5.84415 2.47559 10.0001C2.47559 14.156 5.84464 17.5251 10.0006 17.5251Z" fill="#FFF48E"/>
<path d="M13.3492 13.85H6.64922L5.88672 9.375L8.24922 10.6875L9.99922 7.625L11.7492 10.6875L14.1117 9.375L13.3492 13.85Z" fill="#F5BC00" stroke="#F5BC00" stroke-linecap="round" stroke-linejoin="round"/>
<path d="M9.9998 6.4249C10.4554 6.4249 10.8248 6.05554 10.8248 5.5999C10.8248 5.14427 10.4554 4.7749 9.9998 4.7749C9.54417 4.7749 9.1748 5.14427 9.1748 5.5999C9.1748 6.05554 9.54417 6.4249 9.9998 6.4249Z" fill="#F5BC00"/>
<path d="M14.8875 8.4249C15.3431 8.4249 15.7125 8.05554 15.7125 7.5999C15.7125 7.14427 15.3431 6.7749 14.8875 6.7749C14.4319 6.7749 14.0625 7.14427 14.0625 7.5999C14.0625 8.05554 14.4319 8.4249 14.8875 8.4249Z" fill="#F5BC00"/>
<path d="M5.11211 8.4249C5.56774 8.4249 5.93711 8.05554 5.93711 7.5999C5.93711 7.14427 5.56774 6.7749 5.11211 6.7749C4.65647 6.7749 4.28711 7.14427 4.28711 7.5999C4.28711 8.05554 4.65647 8.4249 5.11211 8.4249Z" fill="#F5BC00"/>
</svg>
