<svg width="20" height="20" viewBox="0 0 20 20" fill="none" xmlns="http://www.w3.org/2000/svg">
<path d="M10 20C15.5228 20 20 15.5228 20 10C20 4.47715 15.5228 0 10 0C4.47715 0 0 4.47715 0 10C0 15.5228 4.47715 20 10 20Z" fill="#0AA7FF"/>
<path d="M9.99961 17.5251C14.1556 17.5251 17.5246 14.156 17.5246 10.0001C17.5246 5.84415 14.1556 2.4751 9.99961 2.4751C5.84367 2.4751 2.47461 5.84415 2.47461 10.0001C2.47461 14.156 5.84367 17.5251 9.99961 17.5251Z" fill="#BAEEFE"/>
<path d="M10 5.3623L11.525 7.9123L14.4375 8.5748L12.475 10.8248L12.7375 13.7873L10 12.6248L7.2625 13.7873L7.525 10.8248L5.5625 8.5748L8.475 7.9123L10 5.3623Z" fill="#0A7AFF" stroke="#0A7AFF" stroke-linecap="round" stroke-linejoin="round"/>
</svg>
