<svg width="60" height="60" viewBox="0 0 60 60" fill="none" xmlns="http://www.w3.org/2000/svg">
<path d="M18.1917 31.2923L19.5133 28.9483C19.5133 28.9483 19.6271 28.744 19.6625 28.6175C20.0652 27.31 22.6723 18.7602 22.1535 14.2343C22.1352 14.0862 22.0899 13.9271 22.0257 13.7761L19.2753 7.30158C18.9866 6.62204 19.0349 5.84393 19.4139 5.21499C20.0828 4.06184 21.5043 2.47753 24.2369 2.72052C24.5384 2.74841 24.8262 2.84897 25.0546 3.01935C25.944 3.64426 28.3134 5.44532 30.3406 8.17166C30.8741 8.90315 31.2647 9.71767 31.4585 10.5935L33.3716 18.7162C33.406 18.9021 33.6023 18.997 33.7722 18.9248L46.9478 13.3277C48.4956 12.6702 50.3226 13.1419 51.285 14.5157C51.4968 14.8045 51.695 15.166 51.8714 15.5813C52.7454 17.6388 51.976 19.0797 51.3516 19.8129C51.1326 20.0842 51.2364 20.4858 51.5591 20.6161C52.2235 20.8686 53.1077 21.4289 53.5888 22.5615C54.2223 24.0527 53.5576 25.5829 53.1946 26.2496C53.0917 26.427 53.1611 26.6426 53.3493 26.7186C53.8226 26.941 54.6341 27.4875 55.1313 28.6579C55.7246 30.0547 55.1916 31.6849 54.6234 32.5502C54.461 32.7975 54.5327 33.1236 54.7799 33.2859C55.2635 33.6375 55.9939 34.3077 56.5071 35.5158C57.341 37.4789 56.0354 39.8607 54.1478 40.6626L31.232 50.3973C30.9866 50.5016 30.7172 50.5492 30.4615 50.5241L26.552 50.2908C25.9112 50.2511 25.3389 49.848 25.0903 49.2629L18.09 32.7839C17.8815 32.2931 17.9156 31.7439 18.1648 31.2815L18.1917 31.2923Z" fill="#00FF85"/>
<path d="M14.8458 28.1898L4.97349 32.3836C2.88848 33.2693 1.91626 35.6775 2.80198 37.7625L10.6523 56.2424C11.538 58.3274 13.9463 59.2996 16.0313 58.4139L25.9036 54.2201C27.9886 53.3344 28.9608 50.9261 28.0751 48.8411L20.2247 30.3613C19.339 28.2763 16.9308 27.3041 14.8458 28.1898Z" fill="#0A7AFF"/>
<path d="M21.7013 48.6511C22.1642 49.7409 21.0204 51.2739 19.1703 52.0598C17.3203 52.8457 15.4228 52.6047 14.9599 51.5149C14.4969 50.4251 15.6407 48.8921 17.4908 48.1062C19.3409 47.3203 21.2383 47.5613 21.7013 48.6511Z" fill="#00FF85"/>
</svg>
