<svg width="406" height="28" viewBox="0 0 406 28" fill="none" xmlns="http://www.w3.org/2000/svg">
<path d="M385.45 6.84C379.01 3.63 371.71 0 357.77 0C343.83 0 336.53 3.63 330.09 6.84C324.52 9.61 319.72 12 309.54 12C299.36 12 294.56 9.61 288.99 6.84C282.55 3.63 275.25 0 261.32 0C247.39 0 240.08 3.63 233.64 6.84C228.07 9.61 223.27 12 213.09 12C202.91 12 198.11 9.61 192.55 6.84C186.11 3.63 178.81 0 164.88 0C150.95 0 143.65 3.63 137.21 6.84C131.64 9.61 126.84 12 116.67 12C106.5 12 101.69 9.61 96.12 6.84C89.68 3.63 82.38 0 68.44 0C54.5 0 47.21 3.63 40.77 6.84C35.2 9.61 30.4 12 20.22 12C10.04 12 5.43 9.7 0 7V24.55C5.02 26.48 11.24 28 20.22 28C34.16 28 41.46 24.37 47.89 21.16C53.46 18.39 58.26 16 68.43 16C78.6 16 83.41 18.39 88.98 21.16C95.42 24.37 102.72 28 116.66 28C130.6 28 137.89 24.37 144.33 21.16C149.9 18.39 154.7 16 164.87 16C175.04 16 179.85 18.39 185.42 21.16C191.86 24.37 199.16 28 213.09 28C227.02 28 234.33 24.37 240.77 21.16C246.34 18.39 251.14 16 261.32 16C271.5 16 276.3 18.39 281.87 21.16C288.31 24.37 295.61 28 309.54 28C323.47 28 330.78 24.37 337.22 21.16C342.79 18.39 347.59 16 357.77 16C367.95 16 372.75 18.39 378.32 21.16C384.76 24.37 392.06 28 406 28V12C395.82 12 391.02 9.61 385.45 6.84Z" fill="#0A7AFF"/>
</svg>
