<svg width="15" height="14" viewBox="0 0 15 14" fill="none" xmlns="http://www.w3.org/2000/svg">
<path d="M4.52681 6.95305L5.04331 6.55574C5.04331 6.55574 5.08801 6.52098 5.10787 6.49614C5.32143 6.24286 6.71202 4.58408 7.0249 3.52624C7.03484 3.49147 7.0398 3.45174 7.0398 3.41201V1.70854C7.0398 1.52975 7.12423 1.36089 7.26826 1.2566C7.52651 1.06291 7.99335 0.844385 8.57939 1.15727C8.64395 1.19203 8.69858 1.2417 8.73334 1.30129C8.8724 1.52478 9.22998 2.15055 9.42367 2.95014C9.47334 3.16369 9.48327 3.38221 9.44354 3.59577L9.10086 5.58729C9.09092 5.63199 9.12569 5.67172 9.17039 5.67172H12.6369C13.0442 5.67172 13.4067 5.94984 13.4912 6.34715C13.511 6.43158 13.5209 6.53091 13.5209 6.64017C13.5209 7.18151 13.213 7.42983 13.0044 7.53412C12.9299 7.57385 12.915 7.67318 12.9746 7.73278C13.0988 7.85197 13.2428 8.06056 13.2428 8.35854C13.2428 8.75089 12.9498 9.02901 12.8058 9.14323C12.7661 9.17303 12.7611 9.22766 12.7959 9.26243C12.8803 9.35679 13.0094 9.55544 13.0094 9.86336C13.0094 10.2309 12.7363 10.5438 12.5277 10.6828C12.4681 10.7225 12.4532 10.802 12.4929 10.8616C12.5674 10.9858 12.6667 11.2043 12.6667 11.5221C12.6667 12.0386 12.1502 12.4459 11.6536 12.4459H5.62438C5.55982 12.4459 5.49525 12.431 5.44062 12.4012L4.59137 11.979C4.45231 11.9095 4.36292 11.7655 4.36292 11.6115V7.27587C4.36292 7.14674 4.42251 7.02755 4.52184 6.94809L4.52681 6.95305Z" fill="#00FF85" stroke="#0A7AFF" stroke-width="1.5" stroke-miterlimit="10"/>
<path d="M4.07508 5.94482H1.47765C0.929081 5.94482 0.484375 6.38953 0.484375 6.9381V11.8002C0.484375 12.3488 0.929081 12.7935 1.47765 12.7935H4.07508C4.62365 12.7935 5.06836 12.3488 5.06836 11.8002V6.9381C5.06836 6.38953 4.62365 5.94482 4.07508 5.94482Z" fill="#0A7AFF"/>
</svg>
