<svg width="15" height="14" viewBox="0 0 15 14" fill="none" xmlns="http://www.w3.org/2000/svg">
<path d="M4.52717 6.95305L5.04368 6.55574C5.04368 6.55574 5.08838 6.52098 5.10824 6.49614C5.3218 6.24286 6.71239 4.58408 7.02527 3.52624C7.0352 3.49147 7.04017 3.45174 7.04017 3.41201V1.70854C7.04017 1.52975 7.1246 1.36089 7.26862 1.2566C7.52688 1.06291 7.99372 0.844385 8.57975 1.15727C8.64431 1.19203 8.69894 1.2417 8.73371 1.30129C8.87277 1.52478 9.23035 2.15055 9.42404 2.95014C9.4737 3.16369 9.48364 3.38221 9.4439 3.59577L9.10122 5.58729C9.09129 5.63199 9.12606 5.67172 9.17075 5.67172H12.6373C13.0445 5.67172 13.4071 5.94984 13.4915 6.34715C13.5114 6.43158 13.5213 6.53091 13.5213 6.64017C13.5213 7.18151 13.2134 7.42983 13.0048 7.53412C12.9303 7.57385 12.9154 7.67318 12.975 7.73278C13.0992 7.85197 13.2432 8.06056 13.2432 8.35854C13.2432 8.75089 12.9502 9.02901 12.8062 9.14323C12.7664 9.17303 12.7615 9.22766 12.7962 9.26243C12.8806 9.35679 13.0098 9.55544 13.0098 9.86336C13.0098 10.2309 12.7366 10.5438 12.528 10.6828C12.4684 10.7225 12.4535 10.802 12.4933 10.8616C12.5678 10.9858 12.6671 11.2043 12.6671 11.5221C12.6671 12.0386 12.1506 12.4459 11.654 12.4459H5.62475C5.56018 12.4459 5.49562 12.431 5.44099 12.4012L4.59174 11.979C4.45268 11.9095 4.36328 11.7655 4.36328 11.6115V7.27587C4.36328 7.14674 4.42288 7.02755 4.52221 6.94809L4.52717 6.95305Z" stroke="#333333" stroke-width="1.5" stroke-miterlimit="10"/>
<path d="M4.07508 5.94434H1.47765C0.929081 5.94434 0.484375 6.38904 0.484375 6.93762V11.7997C0.484375 12.3483 0.929081 12.793 1.47765 12.793H4.07508C4.62365 12.793 5.06836 12.3483 5.06836 11.7997V6.93762C5.06836 6.38904 4.62365 5.94434 4.07508 5.94434Z" fill="#333333"/>
</svg>
