<svg width="26" height="24" viewBox="0 0 26 24" fill="none" xmlns="http://www.w3.org/2000/svg">
<path d="M8.36296 12.662L9.33141 11.917C9.33141 11.917 9.41521 11.8518 9.45246 11.8053C9.85288 11.3304 12.4602 8.22015 13.0469 6.2367C13.0655 6.17151 13.0748 6.09702 13.0748 6.02252V2.82851C13.0748 2.49328 13.2331 2.17667 13.5032 1.98112C13.9874 1.61795 14.8627 1.20822 15.9615 1.79488C16.0826 1.86006 16.185 1.95318 16.2502 2.06493C16.511 2.48396 17.1814 3.65728 17.5446 5.15651C17.6377 5.55692 17.6563 5.96665 17.5818 6.36707L16.9393 10.1012C16.9207 10.185 16.9859 10.2595 17.0697 10.2595H23.5694C24.333 10.2595 25.0128 10.781 25.1711 11.5259C25.2084 11.6842 25.227 11.8705 25.227 12.0753C25.227 13.0903 24.6496 13.5559 24.2585 13.7515C24.1189 13.826 24.0909 14.0122 24.2027 14.124C24.4355 14.3474 24.7055 14.7385 24.7055 15.2973C24.7055 16.0329 24.1561 16.5544 23.8861 16.7686C23.8116 16.8244 23.8022 16.9269 23.8674 16.992C24.0257 17.169 24.2678 17.5415 24.2678 18.1188C24.2678 18.8079 23.7557 19.3945 23.3646 19.6553C23.2528 19.7298 23.2249 19.8788 23.2994 19.9905C23.4391 20.2233 23.6253 20.633 23.6253 21.229C23.6253 22.1975 22.6569 22.961 21.7257 22.961H10.4209C10.2999 22.961 10.1788 22.9331 10.0764 22.8772L8.48402 22.0857C8.22328 21.9553 8.05566 21.6853 8.05566 21.3966V13.2673C8.05566 13.0251 8.16741 12.8017 8.35365 12.6527L8.36296 12.662Z" stroke="#0A7AFF" stroke-width="1.5" stroke-miterlimit="10"/>
<path d="M7.51577 10.7715H2.6456C1.61703 10.7715 0.783203 11.6053 0.783203 12.6339V21.7503C0.783203 22.7789 1.61703 23.6127 2.6456 23.6127H7.51577C8.54435 23.6127 9.37817 22.7789 9.37817 21.7503V12.6339C9.37817 11.6053 8.54435 10.7715 7.51577 10.7715Z" fill="#0A7AFF"/>
<path d="M6.32367 20.5398C6.32367 20.9402 5.76495 21.2661 5.08517 21.2661C4.4054 21.2661 3.84668 20.9402 3.84668 20.5398C3.84668 20.1394 4.4054 19.8135 5.08517 19.8135C5.76495 19.8135 6.32367 20.1394 6.32367 20.5398Z" fill="white"/>
</svg>
