<svg width="23" height="30" viewBox="0 0 23 30" fill="none" xmlns="http://www.w3.org/2000/svg">
<path d="M10.9798 21.5698H9.00977V29.9698H10.9798V21.5698Z" fill="#FF9D0A"/>
<path d="M16.2897 28.3799H3.71973V29.9999H16.2897V28.3799Z" fill="#FF9D0A"/>
<path d="M12.34 26.8001H7.65996C3.82996 26.8001 0.709961 23.8201 0.709961 20.1501V15.5601C0.709961 15.2801 0.929961 15.0601 1.20996 15.0601C1.48996 15.0601 1.70996 15.2801 1.70996 15.5601V20.1501C1.70996 23.2601 4.37996 25.8001 7.65996 25.8001H12.34C15.62 25.8001 18.29 23.2701 18.29 20.1501V15.5601C18.29 15.2801 18.51 15.0601 18.79 15.0601C19.07 15.0601 19.29 15.2801 19.29 15.5601V20.1501C19.29 23.8101 16.17 26.8001 12.34 26.8001Z" fill="#FF9D0A"/>
<path d="M7.96012 18.6301C7.40012 18.6301 6.94012 18.1701 6.94012 17.6101C6.94012 17.0501 7.40012 16.5901 7.96012 16.5901H16.8701V14.7401H7.96012C7.40012 14.7401 6.94012 14.2801 6.94012 13.7201C6.94012 13.1601 7.40012 12.7001 7.96012 12.7001H16.8701V10.8501H7.96012C7.40012 10.8501 6.94012 10.3901 6.94012 9.83006C6.94012 9.27006 7.40012 8.81006 7.96012 8.81006H16.8701C16.8701 6.05006 14.6301 3.81006 11.8701 3.81006H8.12012C5.36012 3.81006 3.12012 6.05006 3.12012 8.81006V19.6701C3.12012 22.4301 5.36012 24.6701 8.12012 24.6701H11.8701C14.6301 24.6701 16.8701 22.4301 16.8701 19.6701V18.6401H7.96012V18.6301Z" fill="#FF9D0A"/>
<path d="M17.8198 3.72987C17.4198 3.60987 17.1998 3.18987 17.3198 2.79987L17.8898 0.879872C18.0098 0.479872 18.4298 0.259872 18.8198 0.379872C19.2098 0.499872 19.4398 0.919872 19.3198 1.30987L18.7498 3.22987C18.6298 3.62987 18.2098 3.84987 17.8198 3.72987Z" fill="#FF9D0A"/>
<path d="M19.7899 5.59978C19.6099 5.53978 19.4399 5.41978 19.3499 5.23978C19.1499 4.87978 19.2899 4.41978 19.6499 4.21978L21.4099 3.26978C21.7699 3.06978 22.2299 3.20978 22.4299 3.56978C22.6299 3.92978 22.4899 4.38978 22.1299 4.58978L20.3699 5.53978C20.1899 5.63978 19.9799 5.64978 19.7999 5.59978H19.7899Z" fill="#FF9D0A"/>
<path d="M22.15 8.82974L20.23 8.25974C19.83 8.13974 19.61 7.71974 19.73 7.32974C19.85 6.93974 20.27 6.70974 20.66 6.82974L22.58 7.39974C22.98 7.51974 23.2 7.93974 23.08 8.32974C22.96 8.71974 22.54 8.94974 22.15 8.82974Z" fill="#FF9D0A"/>
</svg>
