<svg width="12" height="11" viewBox="0 0 12 11" fill="none" xmlns="http://www.w3.org/2000/svg">
<path d="M3.14997 4.1095C2.93677 4.56068 2.56491 4.91767 2.09885 5.10607L1.21135 5.46306L0.869245 5.60188C0.363518 5.81012 0.115613 6.38526 0.323854 6.89099L0.998155 8.55691C1.2064 9.06264 1.78154 9.31054 2.28726 9.1023L2.62937 8.96348L3.51687 8.60649C3.97797 8.41808 4.49857 8.41313 4.96463 8.59162L8.69808 10.0047L4.84564 0.5L3.14997 4.11445V4.1095Z" stroke="#333333" stroke-width="0.5" stroke-linecap="round" stroke-linejoin="round"/>
<path d="M7.90967 3.16745C8.68313 2.85509 9.56071 3.22694 9.87308 3.99545C10.1854 4.76395 9.81358 5.6465 9.04507 5.95886" stroke="#333333" stroke-width="0.5" stroke-linecap="round" stroke-linejoin="round"/>
<path d="M7.25024 1.53135C8.92608 0.852094 10.83 1.66026 11.5093 3.33114C12.1885 5.00202 11.3803 6.91089 9.70946 7.59015" stroke="#333333" stroke-width="0.5" stroke-linecap="round" stroke-linejoin="round"/>
</svg>
