<svg width="26" height="23" viewBox="0 0 26 23" fill="none" xmlns="http://www.w3.org/2000/svg">
<path d="M7.25008 9.1301C6.82008 10.0401 6.07008 10.7601 5.13008 11.1401L3.34008 11.8601L2.65008 12.1401C1.63008 12.5601 1.13008 13.7201 1.55008 14.7401L2.91008 18.1001C3.33008 19.1201 4.49008 19.6201 5.51008 19.2001L6.20008 18.9201L7.99008 18.2001C8.92008 17.8201 9.97008 17.8101 10.9101 18.1701L18.4401 21.0201L10.6701 1.8501L7.25008 9.1401V9.1301Z" stroke="black" stroke-width="2" stroke-linecap="round" stroke-linejoin="round"/>
<path d="M16.8501 7.22999C18.4101 6.59999 20.1801 7.34999 20.8101 8.89999C21.4401 10.45 20.6901 12.23 19.1401 12.86" stroke="black" stroke-width="2" stroke-linecap="round" stroke-linejoin="round"/>
<path d="M15.52 3.93024C18.9 2.56024 22.74 4.19024 24.11 7.56024C25.48 10.9302 23.85 14.7802 20.48 16.1502" stroke="black" stroke-width="2" stroke-linecap="round" stroke-linejoin="round"/>
</svg>
