<svg width="16" height="16" viewBox="0 0 16 16" fill="none" xmlns="http://www.w3.org/2000/svg">
<path d="M7.99973 14.0297C11.33 14.0297 14.0297 11.33 14.0297 7.99973C14.0297 4.66945 11.33 1.96973 7.99973 1.96973C4.66945 1.96973 1.96973 4.66945 1.96973 7.99973C1.96973 11.33 4.66945 14.0297 7.99973 14.0297Z" fill="#5712EB" stroke="#5712EB" stroke-width="1.5" stroke-linecap="round" stroke-linejoin="round"/>
<path d="M7.12039 8.38008C7.18039 8.13008 7.27039 7.93008 7.39039 7.78008C7.51039 7.63008 7.67039 7.49008 7.87039 7.35008C8.15039 7.16008 8.35039 7.00008 8.48039 6.85008C8.61039 6.70008 8.68039 6.53008 8.68039 6.33008C8.68039 6.13008 8.61039 5.97008 8.48039 5.85008C8.35039 5.73008 8.19039 5.66008 7.99039 5.66008C7.86039 5.66008 7.73039 5.69008 7.61039 5.76008C7.49039 5.83008 7.40039 5.92008 7.33039 6.03008C7.26039 6.15008 7.23039 6.28008 7.22039 6.43008H5.40039C5.40039 5.90008 5.53039 5.46008 5.76039 5.11008C5.99039 4.76008 6.30039 4.50008 6.69039 4.33008C7.08039 4.16008 7.51039 4.08008 8.00039 4.08008C8.52039 4.08008 8.99039 4.16008 9.39039 4.32008C9.79039 4.48008 10.1104 4.72008 10.3404 5.04008C10.5704 5.36008 10.6804 5.75008 10.6804 6.21008C10.6804 6.64008 10.5804 7.01008 10.3804 7.31008C10.1804 7.61008 9.88039 7.87008 9.50039 8.10008C9.21039 8.28008 9.01039 8.46008 8.88039 8.64008C8.75039 8.82008 8.69039 9.07008 8.69039 9.36008V9.53008H7.02039V9.36008C7.02039 8.95008 7.05039 8.62008 7.11039 8.37008L7.12039 8.38008ZM7.02039 10.5201C7.11039 10.3601 7.23039 10.2401 7.38039 10.1401C7.53039 10.0501 7.70039 10.0001 7.88039 10.0001C8.05039 10.0001 8.21039 10.0501 8.37039 10.1401C8.52039 10.2301 8.65039 10.3601 8.74039 10.5201C8.83039 10.6801 8.88039 10.8501 8.88039 11.0401C8.88039 11.2301 8.83039 11.4001 8.74039 11.5601C8.65039 11.7201 8.52039 11.8501 8.37039 11.9401C8.22039 12.0301 8.05039 12.0801 7.88039 12.0801C7.70039 12.0801 7.53039 12.0301 7.38039 11.9401C7.23039 11.8501 7.11039 11.7201 7.02039 11.5601C6.93039 11.4001 6.89039 11.2301 6.89039 11.0401C6.89039 10.8501 6.93039 10.6801 7.02039 10.5201Z" fill="white"/>
</svg>
