<svg width="24" height="30" viewBox="0 0 24 30" fill="none" xmlns="http://www.w3.org/2000/svg">
<path d="M14.0354 20.5842L23.2715 7.67871L17.3432 3.43607L8.1072 16.3416L14.0354 20.5842Z" fill="#0A7AFF"/>
<path d="M12.2464 19.304L21.4824 6.39844L19.1404 4.72233L9.90436 17.6279L12.2464 19.304Z" fill="#DF2E47"/>
<path d="M15.8815 16.3469L6.64551 3.44141L0.717263 7.68405L9.9533 20.5896L15.8815 16.3469Z" fill="#0A7AFF"/>
<path d="M14.0925 17.6272L4.85645 4.72168L2.51442 6.39779L11.7505 19.3033L14.0925 17.6272Z" fill="#DF2E47"/>
<path d="M2.84961 15.2999V23.5599C2.84961 24.2699 3.22961 24.9299 3.84961 25.2899L10.9996 29.4199C11.6196 29.7799 12.3796 29.7799 12.9996 29.4199L20.1496 25.2899C20.7696 24.9299 21.1496 24.2699 21.1496 23.5599V15.2999C21.1496 14.5899 20.7696 13.9299 20.1496 13.5699L12.9996 9.43992C12.3796 9.07992 11.6196 9.07992 10.9996 9.43992L3.84961 13.5699C3.22961 13.9299 2.84961 14.5899 2.84961 15.2999Z" fill="#F5BC3E"/>
<path d="M5.81934 16.4398V22.4198C5.81934 22.7798 6.00934 23.1098 6.31934 23.2898L11.4993 26.2798C11.8093 26.4598 12.1893 26.4598 12.4993 26.2798L17.6793 23.2898C17.9893 23.1098 18.1793 22.7798 18.1793 22.4198V16.4398C18.1793 16.0798 17.9893 15.7498 17.6793 15.5698L12.4993 12.5798C12.1893 12.3998 11.8093 12.3998 11.4993 12.5798L6.31934 15.5698C6.00934 15.7498 5.81934 16.0798 5.81934 16.4398Z" fill="#F2DD22"/>
</svg>
