<svg width="74" height="74" viewBox="0 0 74 74" fill="none" xmlns="http://www.w3.org/2000/svg">
<g clip-path="url(#clip0_3491_56008)">
<path d="M74 37C74 16.5655 57.4345 0 37 0C16.5655 0 0 16.5655 0 37C0 57.4345 16.5655 74 37 74C57.4345 74 74 57.4345 74 37Z" fill="#D6D6D6"/>
<path d="M33.5614 47.8824C41.4708 47.8824 47.8826 41.4705 47.8826 33.5612C47.8826 25.6518 41.4708 19.24 33.5614 19.24C25.652 19.24 19.2402 25.6518 19.2402 33.5612C19.2402 41.4705 25.652 47.8824 33.5614 47.8824Z" stroke="white" stroke-width="6" stroke-linecap="round" stroke-linejoin="round"/>
<path d="M43.7036 43.7035L52.8448 52.8447" stroke="white" stroke-width="6" stroke-linecap="round" stroke-linejoin="round"/>
</g>
<defs>
<clipPath id="clip0_3491_56008">
<rect width="74" height="74" fill="white"/>
</clipPath>
</defs>
</svg>
