<svg width="24" height="24" viewBox="0 0 24 24" fill="none" xmlns="http://www.w3.org/2000/svg">
<path d="M20.2 17.3499C21.33 15.8299 22 13.9899 22 11.9999C22 6.8299 17.52 2.6499 12 2.6499C6.48 2.6499 2 6.8299 2 11.9999C2 17.1699 6.48 21.3499 12 21.3499C14.22 21.3499 16.26 20.6699 17.92 19.5199L21 20.3499L20.2 17.3499Z" stroke="black" stroke-width="1.5" stroke-linecap="round" stroke-linejoin="round"/>
<path d="M7.41016 13.25C8.10051 13.25 8.66016 12.6904 8.66016 12C8.66016 11.3096 8.10051 10.75 7.41016 10.75C6.7198 10.75 6.16016 11.3096 6.16016 12C6.16016 12.6904 6.7198 13.25 7.41016 13.25Z" fill="black"/>
<path d="M12 13.25C12.6904 13.25 13.25 12.6904 13.25 12C13.25 11.3096 12.6904 10.75 12 10.75C11.3096 10.75 10.75 11.3096 10.75 12C10.75 12.6904 11.3096 13.25 12 13.25Z" fill="black"/>
<path d="M16.5898 13.25C17.2802 13.25 17.8398 12.6904 17.8398 12C17.8398 11.3096 17.2802 10.75 16.5898 10.75C15.8995 10.75 15.3398 11.3096 15.3398 12C15.3398 12.6904 15.8995 13.25 16.5898 13.25Z" fill="black"/>
</svg>
