<svg width="24" height="24" viewBox="0 0 24 24" fill="none" xmlns="http://www.w3.org/2000/svg">
<path d="M5.08008 5.53003H12.4501" stroke="white" stroke-width="1.5" stroke-linecap="round" stroke-linejoin="round"/>
<path d="M5.08008 12.6599H12.0001" stroke="white" stroke-width="1.5" stroke-linecap="round" stroke-linejoin="round"/>
<path d="M7.5 20.75H2V2H15.53V10" stroke="white" stroke-width="1.5" stroke-linecap="round" stroke-linejoin="round"/>
<path d="M5.08008 16.22H8.27008" stroke="white" stroke-width="1.5" stroke-linecap="round" stroke-linejoin="round"/>
<path d="M5.08008 9.09009H10.3801" stroke="white" stroke-width="1.5" stroke-linecap="round" stroke-linejoin="round"/>
<path d="M21.4801 13.2199L22.7101 11.9899C23.1001 11.5999 23.1001 10.9699 22.7101 10.5799L21.9701 9.83986C21.5801 9.44986 20.9501 9.44986 20.5601 9.83986L19.3301 11.0699" stroke="white" stroke-width="1.5" stroke-linecap="round" stroke-linejoin="round"/>
<path d="M19.3202 11.0698L11.8102 18.5798C11.7202 18.6698 11.6502 18.7798 11.6002 18.8998L10.5902 21.2998C10.4202 21.7198 10.8302 22.1298 11.2502 21.9598L13.6502 20.9498C13.7702 20.8998 13.8802 20.8298 13.9702 20.7398L21.4802 13.2298L19.3302 11.0798L19.3202 11.0698Z" stroke="white" stroke-width="1.5" stroke-linecap="round" stroke-linejoin="round"/>
</svg>
