<svg width="26" height="24" viewBox="0 0 26 24" fill="none" xmlns="http://www.w3.org/2000/svg">
<path d="M23.83 18.63C25.2 16.73 26 14.45 26 12C26 5.37 20.18 0 13 0C5.82 0 0 5.37 0 12C0 18.63 5.82 24 13 24C15.79 24 18.38 23.18 20.5 21.79L25 23L23.83 18.63Z" fill="#5712EB"/>
<path d="M7.67 13.6701C8.59232 13.6701 9.34 12.9224 9.34 12.0001C9.34 11.0778 8.59232 10.3301 7.67 10.3301C6.74768 10.3301 6 11.0778 6 12.0001C6 12.9224 6.74768 13.6701 7.67 13.6701Z" fill="white"/>
<path d="M13.0001 13.6701C13.9224 13.6701 14.6701 12.9224 14.6701 12.0001C14.6701 11.0778 13.9224 10.3301 13.0001 10.3301C12.0778 10.3301 11.3301 11.0778 11.3301 12.0001C11.3301 12.9224 12.0778 13.6701 13.0001 13.6701Z" fill="white"/>
<path d="M18.3302 13.6701C19.2525 13.6701 20.0002 12.9224 20.0002 12.0001C20.0002 11.0778 19.2525 10.3301 18.3302 10.3301C17.4078 10.3301 16.6602 11.0778 16.6602 12.0001C16.6602 12.9224 17.4078 13.6701 18.3302 13.6701Z" fill="white"/>
</svg>
