<svg width="7" height="4" viewBox="0 0 7 4" fill="none" xmlns="http://www.w3.org/2000/svg">
<path d="M6.18343 0.679987L3.49938 2.85063L0.820333 0.599593C0.769792 0.557363 0.711472 0.525554 0.648702 0.505982C0.585933 0.48641 0.519943 0.479458 0.454501 0.485523C0.389059 0.491589 0.325446 0.510553 0.267295 0.541333C0.209143 0.572112 0.157592 0.614105 0.115584 0.664913C0.0735755 0.715721 0.0419336 0.77435 0.0224644 0.837451C0.00299524 0.900552 -0.00392007 0.966891 0.00211359 1.03268C0.00814726 1.09847 0.0270117 1.16242 0.0576296 1.22087C0.0882476 1.27933 0.13002 1.33116 0.180561 1.37339L3.17949 3.88571C3.26893 3.95961 3.38111 4.00001 3.49688 4.00001C3.61265 4.00001 3.72483 3.95961 3.81427 3.88571L6.8132 1.45881C6.86455 1.41734 6.90723 1.36608 6.93881 1.30798C6.97038 1.24988 6.99023 1.18607 6.99719 1.12024C7.00416 1.0544 6.99812 0.987828 6.97941 0.924347C6.9607 0.860866 6.92969 0.801728 6.88817 0.750332C6.84657 0.699086 6.79531 0.656602 6.73733 0.625318C6.67936 0.594034 6.61581 0.574566 6.55033 0.56803C6.48485 0.561494 6.41874 0.56802 6.35577 0.587233C6.29281 0.606445 6.23424 0.637966 6.18343 0.679987V0.679987Z" fill="#333333"/>
</svg>
