<svg width="7" height="4" viewBox="0 0 7 4" fill="none" xmlns="http://www.w3.org/2000/svg">
<path d="M3.1795 0.114291C3.26893 0.0403876 3.38111 -1.34063e-05 3.49688 -1.34063e-05C3.61265 -1.34063e-05 3.72483 0.0403876 3.81427 0.114291L6.8132 2.54119C6.86455 2.58266 6.90724 2.63391 6.93881 2.69202C6.97039 2.75012 6.99023 2.81392 6.9972 2.87976C7.00416 2.9456 6.99812 3.01217 6.97941 3.07565C6.9607 3.13913 6.92969 3.19827 6.88818 3.24967C6.84693 3.30128 6.79594 3.3442 6.73814 3.37594C6.68035 3.40768 6.61688 3.42763 6.55139 3.43463C6.4859 3.44164 6.41967 3.43556 6.35653 3.41675C6.29338 3.39794 6.23455 3.36677 6.18343 3.32504L3.49938 1.14937L0.820334 3.40041C0.718262 3.48569 0.586669 3.52673 0.454503 3.51448C0.322336 3.50223 0.200424 3.4377 0.115585 3.33509C0.0307459 3.23247 -0.0100705 3.10018 0.002115 2.96732C0.0143005 2.83446 0.0784899 2.7119 0.180562 2.62661L3.1795 0.114291Z" fill="#ffffff"/>
</svg>
