<svg width="21" height="21" viewBox="0 0 21 21" fill="none" xmlns="http://www.w3.org/2000/svg">
<path d="M19.5527 16.4859H1.44806C1.27943 16.4859 1.12613 16.3907 1.04948 16.2416C0.972828 16.0925 0.985603 15.91 1.08525 15.7738L2.94528 13.1748V8.60154C2.94528 4.41131 6.33576 1 10.5004 1C14.665 1 18.0555 4.41131 18.0555 8.60154V13.1774L19.9156 15.7763C20.0126 15.9126 20.028 16.0951 19.9513 16.2442C19.8747 16.3959 19.7214 16.4884 19.5527 16.4884V16.4859ZM2.32187 15.5861H18.6789L17.2456 13.5835C17.1919 13.5064 17.1613 13.4139 17.1613 13.3213V8.60154C17.1613 4.90488 14.1745 1.89974 10.5004 1.89974C6.82632 1.89974 3.83953 4.90488 3.83953 8.60154V13.3213C3.83953 13.4165 3.80887 13.509 3.75522 13.5835L2.32187 15.5861Z" fill="#333333"/>
<path d="M10.5003 20C9.03889 20 7.84826 18.8021 7.84826 17.3316C7.84826 17.0823 8.04755 16.8817 8.29538 16.8817C8.54322 16.8817 8.74251 17.0823 8.74251 17.3316C8.74251 18.3059 9.532 19.1003 10.5003 19.1003C11.4687 19.1003 12.2582 18.3059 12.2582 17.3316C12.2582 17.0823 12.4575 16.8817 12.7053 16.8817C12.9531 16.8817 13.1524 17.0823 13.1524 17.3316C13.1524 18.8021 11.9618 20 10.5003 20Z" fill="#333333"/>
<path d="M19.5527 16.4859H1.44806C1.27943 16.4859 1.12613 16.3907 1.04948 16.2416C0.972828 16.0925 0.985603 15.91 1.08525 15.7738L2.94528 13.1748V8.60154C2.94528 4.41131 6.33576 1 10.5004 1C14.665 1 18.0555 4.41131 18.0555 8.60154V13.1774L19.9156 15.7763C20.0126 15.9126 20.028 16.0951 19.9513 16.2442C19.8747 16.3959 19.7214 16.4884 19.5527 16.4884V16.4859ZM2.32187 15.5861H18.6789L17.2456 13.5835C17.1919 13.5064 17.1613 13.4139 17.1613 13.3213V8.60154C17.1613 4.90488 14.1745 1.89974 10.5004 1.89974C6.82632 1.89974 3.83953 4.90488 3.83953 8.60154V13.3213C3.83953 13.4165 3.80887 13.509 3.75522 13.5835L2.32187 15.5861Z" stroke="#333333"/>
<path d="M10.5003 20C9.03889 20 7.84826 18.8021 7.84826 17.3316C7.84826 17.0823 8.04755 16.8817 8.29538 16.8817C8.54322 16.8817 8.74251 17.0823 8.74251 17.3316C8.74251 18.3059 9.532 19.1003 10.5003 19.1003C11.4687 19.1003 12.2582 18.3059 12.2582 17.3316C12.2582 17.0823 12.4575 16.8817 12.7053 16.8817C12.9531 16.8817 13.1524 17.0823 13.1524 17.3316C13.1524 18.8021 11.9618 20 10.5003 20Z" stroke="#333333"/>
</svg>
