<svg width="24" height="10" viewBox="0 0 24 10" fill="none" xmlns="http://www.w3.org/2000/svg">
<g clip-path="url(#clip0_68_191)">
<path d="M6.14175 0.259628C6.50461 0.432713 6.76892 0.675032 6.93915 0.986586C7.10938 1.29814 7.1497 1.66162 7.0601 2.06837C6.99291 2.37127 6.86299 2.66551 6.66588 2.95543C6.46878 3.24535 6.22239 3.49632 5.9312 3.70402C6.24927 3.90307 6.46877 4.17135 6.58525 4.50454C6.70172 4.84206 6.71964 5.20987 6.63005 5.61662C6.53597 6.05366 6.33886 6.44742 6.04768 6.7936C5.75649 7.13977 5.39811 7.41238 4.97701 7.6071C4.55592 7.80182 4.1169 7.90134 3.65549 7.90134C3.35982 7.90134 3.08656 7.8624 2.84913 7.78451C2.60722 7.70662 2.40115 7.58113 2.22196 7.39939L2.16373 7.42103L1.59928 10H0L1.67095 2.35396C1.77399 1.88663 1.98453 1.47122 2.29812 1.1164C2.61618 0.757248 3.00144 0.484639 3.4539 0.289918C3.90635 0.0951969 4.38569 0 4.88742 0C5.36227 0 5.77889 0.0865424 6.14175 0.259628ZM2.62066 6.00606C2.68338 6.18347 2.79537 6.32194 2.9656 6.42579C3.13583 6.52964 3.3419 6.58157 3.59725 6.58157C3.85259 6.58157 4.0721 6.53397 4.27817 6.43877C4.48872 6.34357 4.65895 6.21376 4.8023 6.045C4.94118 5.88057 5.03077 5.6945 5.07557 5.49113C5.12037 5.2791 5.10693 5.08871 5.03525 4.9286C4.9591 4.7685 4.83814 4.64301 4.66791 4.55647C4.49768 4.46993 4.29609 4.42665 4.0721 4.42233H3.53453L3.7854 3.27131H4.15274C4.39913 3.27131 4.60967 3.22371 4.78887 3.12852C4.96806 3.03332 5.10693 2.91216 5.20996 2.76936C5.30852 2.62224 5.38019 2.47079 5.41155 2.31069C5.47427 2.03375 5.42499 1.80874 5.27716 1.63566C5.12933 1.46257 4.89638 1.37603 4.58728 1.37603C4.37673 1.37603 4.17514 1.4193 3.99147 1.50584C3.80332 1.59238 3.64653 1.71354 3.51661 1.87797C3.3867 2.03808 3.2971 2.2328 3.24783 2.45781L2.59826 5.4219C2.55346 5.63392 2.55794 5.82865 2.62066 6.01039V6.00606Z" fill="#0BB899"/>
<path d="M8.38178 7.57688C7.98308 7.33456 7.7143 6.98839 7.57094 6.53836C7.42759 6.09267 7.42311 5.56476 7.5575 4.95463C7.68742 4.36614 7.92036 3.84256 8.26083 3.38821C8.60129 2.93386 9.01791 2.58337 9.51516 2.33239C10.0124 2.08142 10.5545 1.95593 11.1368 1.95593C11.6789 1.95593 12.1448 2.06411 12.5256 2.28479C12.9063 2.50115 13.1751 2.83434 13.323 3.27571C13.4753 3.71708 13.4797 4.25364 13.3409 4.88973L13.2423 5.33975H9.09854C9.03582 5.62534 9.03582 5.87631 9.10302 6.09267C9.17022 6.3047 9.29565 6.46913 9.47932 6.58596C9.66299 6.7028 9.90042 6.75905 10.1826 6.75905C10.4604 6.75905 10.7068 6.7028 10.9263 6.59462C11.1458 6.49077 11.316 6.34797 11.437 6.17056H13.0139C12.8571 6.52971 12.6286 6.84126 12.3284 7.10522C12.0283 7.36917 11.6699 7.57688 11.2533 7.71967C10.8367 7.86679 10.3798 7.94036 9.89146 7.94036C9.27773 7.94036 8.77152 7.8192 8.37282 7.57688H8.38178ZM11.9029 4.34884C11.9521 4.1195 11.9477 3.9118 11.8805 3.72573C11.8133 3.53966 11.6968 3.39687 11.5311 3.29734C11.3608 3.19782 11.1592 3.14589 10.9173 3.14589C10.6754 3.14589 10.438 3.19782 10.214 3.306C9.99001 3.41418 9.80186 3.55697 9.64507 3.74304C9.48828 3.9291 9.38077 4.13248 9.32253 4.34884H11.9029Z" fill="#0BB899"/>
<path d="M17.9459 3.21949H16.808L16.1898 6.0451C16.1406 6.26146 16.154 6.41291 16.2346 6.49512C16.3153 6.57734 16.4497 6.62494 16.6333 6.62927C16.8036 6.62927 17.0276 6.62061 17.3008 6.59898L17.0276 7.84519C16.7722 7.87981 16.4721 7.89712 16.1182 7.89712C15.5 7.89712 15.043 7.76297 14.7474 7.49036C14.4517 7.21776 14.3666 6.81101 14.492 6.26579L15.1595 3.21516H14.3218L14.5816 2.03385H15.4193L15.7239 0.64917H17.377L17.0724 2.03385H18.2102L17.9504 3.21516L17.9459 3.21949Z" fill="#0BB899"/>
<path d="M18.963 4.89395C19.4424 4.61701 20.0158 4.46123 20.6922 4.42229C21.1088 4.39633 21.6151 4.37036 22.2153 4.34873L22.3184 3.8814C22.3677 3.63908 22.3229 3.45301 22.184 3.31887C22.0451 3.18473 21.8211 3.11549 21.5165 3.11549C21.2343 3.11549 20.9968 3.17607 20.7997 3.28858C20.6026 3.40109 20.4593 3.55686 20.3697 3.75591H18.7928C18.9003 3.41407 19.0929 3.11117 19.3662 2.83856C19.6395 2.57028 19.9844 2.35392 20.401 2.19814C20.8177 2.04237 21.288 1.96448 21.8077 1.96448C22.2736 1.96448 22.6857 2.03371 23.0441 2.17218C23.4025 2.31065 23.6668 2.527 23.837 2.82125C24.0072 3.11549 24.0431 3.4833 23.949 3.929L23.0934 7.83207H21.5299L21.7046 7.03155H21.6598C21.4403 7.31281 21.1671 7.5335 20.8311 7.69793C20.4951 7.86236 20.1143 7.94025 19.6843 7.93592C19.2901 7.93592 18.9541 7.87534 18.6808 7.74552C18.4075 7.61571 18.2104 7.42099 18.094 7.16136C17.9775 6.90173 17.9596 6.58585 18.0402 6.21372C18.1746 5.61658 18.4792 5.17954 18.9586 4.9026L18.963 4.89395ZM19.7784 6.65941C19.9172 6.77625 20.1233 6.83683 20.3966 6.84115C20.6429 6.84115 20.8714 6.79356 21.0909 6.69836C21.3059 6.60316 21.4851 6.47335 21.6285 6.30459C21.7718 6.13583 21.8659 5.95409 21.9062 5.75072L22.0003 5.33099C21.4986 5.35262 21.0775 5.37426 20.746 5.40022C20.4458 5.42618 20.1994 5.50407 20.0068 5.63389C19.8142 5.7637 19.6932 5.93678 19.644 6.15747C19.5947 6.37382 19.644 6.54258 19.7828 6.65941H19.7784Z" fill="#0BB899"/>
</g>
<defs>
<clipPath id="clip0_68_191">
<rect width="24" height="10" fill="white"/>
</clipPath>
</defs>
</svg>
