<svg width="128" height="37" viewBox="0 0 128 37" fill="none" xmlns="http://www.w3.org/2000/svg">
<path d="M125.303 0H0V30.1902H120.408V37L128 30.1902V0H125.303ZM125.303 27.4814H2.69657V2.71152H125.303V27.4814Z" fill="black"/>
<path d="M29.1642 7.46143H25.3295V22.6023H29.1642V7.46143Z" fill="black"/>
<path d="M42.1115 16.3392H48.332V22.6023H52.1024V7.46143H48.332V12.9114H42.1115V7.46143H38.3411V22.6023H42.1115V16.3392Z" fill="black"/>
<path d="M64.0214 19.4304H58.6069V16.1884H63.5957V13.1053H58.6069V10.6307H64.0214V7.46143H54.965V22.6023H64.0214V19.4304Z" fill="black"/>
<path d="M106.497 19.4304H101.085V16.1884H106.071V13.1053H101.085V10.6307H106.497V7.46143H97.4404V22.6023H106.497V19.4304Z" fill="black"/>
<path d="M70.1751 17.4297H71.1418L74.331 22.6023H78.7789L74.8773 16.9127C75.8172 16.5357 76.5429 15.9622 77.0356 15.2082C77.5471 14.4274 77.8042 13.4984 77.8042 12.4456C77.8042 10.9727 77.3007 9.76097 76.3073 8.84277C75.3165 7.92726 73.8437 7.46143 71.9317 7.46143H66.3993V22.6023H70.1697V17.4297H70.1751ZM70.1751 10.7169H71.6586C72.3575 10.7169 72.9091 10.8784 73.3028 11.1989C73.691 11.5139 73.8865 11.977 73.8865 12.5721C73.8865 13.1672 73.691 13.6142 73.3028 13.9346C72.9091 14.2604 72.3575 14.4274 71.6586 14.4274H70.1751V10.7142V10.7169Z" fill="black"/>
<path d="M81.4916 20.8035C82.2119 21.5225 83.0768 22.0853 84.0623 22.4784C85.045 22.8715 86.1376 23.0735 87.3051 23.0735C88.4726 23.0735 89.5866 22.8742 90.5694 22.4784C91.5548 22.0853 92.4171 21.5198 93.1401 20.8035C93.8604 20.0846 94.4281 19.2283 94.8298 18.2509C95.2288 17.2761 95.4323 16.1937 95.4323 15.0331C95.4323 13.8726 95.2261 12.7955 94.8191 11.8343C94.4121 10.873 93.8363 10.0275 93.108 9.32468C92.3796 8.6219 91.512 8.07259 90.5265 7.69292C89.5438 7.31326 88.4593 7.11938 87.3051 7.11938C86.151 7.11938 85.0932 7.31326 84.1158 7.69292C83.1384 8.07259 82.2735 8.6219 81.5451 9.32468C80.8167 10.0275 80.241 10.873 79.834 11.8343C79.427 12.7955 79.2208 13.8726 79.2208 15.0331C79.2208 16.1937 79.4189 17.2761 79.8126 18.2509C80.2062 19.2256 80.7685 20.0846 81.4916 20.8035ZM83.7168 12.7336C84.0542 12.0739 84.5362 11.5542 85.1495 11.188C85.7627 10.8191 86.4884 10.6333 87.3051 10.6333C88.1218 10.6333 88.8877 10.8191 89.5036 11.188C90.1168 11.5542 90.5962 12.0739 90.9255 12.7336C91.2576 13.396 91.4263 14.1688 91.4263 15.0331C91.4263 15.8975 91.2522 16.673 90.9041 17.3327C90.5587 17.9924 90.074 18.5121 89.4608 18.8783C88.8475 19.2472 88.1218 19.433 87.3051 19.433C86.4884 19.433 85.7627 19.2472 85.1495 18.8783C84.5362 18.5121 84.0542 17.9924 83.7168 17.3327C83.3767 16.673 83.2054 15.9002 83.2054 15.0331C83.2054 14.1661 83.3767 13.3933 83.7168 12.7336Z" fill="black"/>
<path d="M114.263 19.7534C113.508 19.7534 112.852 19.5326 112.308 19.0991C111.759 18.6602 111.226 17.9897 110.725 17.1038L110.677 17.0203L108.01 18.8891L108.034 18.9537C108.347 19.7884 108.821 20.5208 109.437 21.1347C110.053 21.746 110.774 22.228 111.58 22.5646C112.388 22.9011 113.261 23.0735 114.174 23.0735C115.928 23.0735 117.342 22.6642 118.373 21.8564C119.412 21.0432 119.937 19.8557 119.937 18.3236C119.937 17.4566 119.76 16.708 119.415 16.0995C119.069 15.4936 118.601 14.9793 118.017 14.5754C117.439 14.1742 116.791 13.8457 116.094 13.6033C115.513 13.3906 114.962 13.1833 114.437 12.984C113.923 12.7875 113.505 12.5694 113.194 12.3324C112.897 12.1062 112.75 11.8423 112.75 11.5273C112.75 11.1692 112.886 10.8972 113.17 10.6899C113.459 10.4825 113.858 10.3748 114.362 10.3748C114.922 10.3748 115.406 10.5283 115.808 10.8272C116.215 11.1315 116.574 11.5623 116.879 12.1035L116.922 12.1816L119.766 10.5391L119.739 10.4664C119.538 9.9467 119.206 9.42163 118.756 8.91002C118.304 8.39572 117.696 7.96489 116.951 7.62561C116.207 7.28634 115.286 7.1167 114.215 7.1167C113.143 7.1167 112.26 7.29442 111.459 7.64716C110.653 8.00259 110.016 8.50343 109.563 9.14159C109.108 9.78244 108.878 10.5391 108.878 11.3954C108.878 12.1331 109.02 12.7794 109.303 13.3179C109.585 13.8538 109.946 14.3088 110.377 14.6696C110.806 15.0278 111.258 15.332 111.722 15.569C112.185 15.806 112.605 15.9971 112.972 16.1398C113.54 16.3687 114.051 16.5787 114.512 16.7699C114.962 16.9584 115.323 17.1792 115.591 17.4269C115.851 17.6693 115.977 17.9816 115.977 18.3882C115.977 19.3064 115.414 19.7534 114.257 19.7534H114.263Z" fill="black"/>
<path d="M13.8042 19.7158H18.4127L19.8159 22.6023H24.0951L16.648 7.46143H15.609L8.11916 22.6023H12.3983L13.8015 19.7158H13.8042ZM16.1285 13.2884L17.6308 16.7808H14.6049L16.1259 13.2884H16.1285Z" fill="black"/>
</svg>
